HIERARCHY
ROOT root
{
	OFFSET 0.000000 0.000000 0.000000
	CHANNELS 6 Xposition Yposition Zposition Zrotation Yrotation Xrotation
	JOINT lhip
	{
		OFFSET 0.058581 -0.082280 -0.017664
		CHANNELS 3 Zrotation Yrotation Xrotation
		JOINT lknee
		{
			OFFSET 0.043451 -0.386469 0.008037
			CHANNELS 3 Zrotation Yrotation Xrotation
			JOINT lankle
			{
				OFFSET -0.014790 -0.426874 -0.037428
				CHANNELS 3 Zrotation Yrotation Xrotation
				JOINT ltoe
				{
					OFFSET 0.041054 -0.060286 0.122042
					CHANNELS 3 Zrotation Yrotation Xrotation
					End Site
					{
						OFFSET 0.000000 0.000000 0.000000
					}
				}
			}
		}
	}
	JOINT rhip
	{
		OFFSET -0.060310 -0.090513 -0.013543
		CHANNELS 3 Zrotation Yrotation Xrotation
		JOINT rknee
		{
			OFFSET -0.043257 -0.383688 -0.004843
			CHANNELS 3 Zrotation Yrotation Xrotation
			JOINT rankle
			{
				OFFSET 0.019056 -0.420046 -0.034562
				CHANNELS 3 Zrotation Yrotation Xrotation
				JOINT rtoe
				{
					OFFSET -0.034840 -0.062106 0.130323
					CHANNELS 3 Zrotation Yrotation Xrotation
					End Site
					{
						OFFSET 0.000000 0.000000 0.000000
					}
				}
			}
		}
	}
	JOINT lowerback
	{
		OFFSET 0.004439 0.124404 -0.038385
		CHANNELS 3 Zrotation Yrotation Xrotation
		JOINT upperback
		{
			OFFSET 0.004488 0.137956 0.026820
			CHANNELS 3 Zrotation Yrotation Xrotation
			JOINT chest
			{
				OFFSET -0.002265 0.056032 0.002855
				CHANNELS 3 Zrotation Yrotation Xrotation
				JOINT lowerneck
				{
					OFFSET -0.013390 0.211636 -0.033468
					CHANNELS 3 Zrotation Yrotation Xrotation
					JOINT upperneck
					{
						OFFSET 0.010113 0.088937 0.050410
						CHANNELS 3 Zrotation Yrotation Xrotation
						End Site
						{
							OFFSET 0.000000 0.000000 0.000000
						}
					}
				}
				JOINT lclavicle
				{
					OFFSET 0.071702 0.114000 -0.018898
					CHANNELS 3 Zrotation Yrotation Xrotation
					JOINT lshoulder
					{
						OFFSET 0.122921 0.045205 -0.019046
						CHANNELS 3 Zrotation Yrotation Xrotation
						JOINT lelbow
						{
							OFFSET 0.255332 -0.015649 -0.022946
							CHANNELS 3 Zrotation Yrotation Xrotation
							JOINT lwrist
							{
								OFFSET 0.265709 0.012698 -0.007375
								CHANNELS 3 Zrotation Yrotation Xrotation
								End Site
								{
									OFFSET 0.000000 0.000000 0.000000
								}
							}
						}
					}
				}
				JOINT rclavicle
				{
					OFFSET -0.082954 0.112472 -0.023707
					CHANNELS 3 Zrotation Yrotation Xrotation
					JOINT rshoulder
					{
						OFFSET -0.113228 0.046853 -0.008472
						CHANNELS 3 Zrotation Yrotation Xrotation
						JOINT relbow
						{
							OFFSET -0.260127 -0.014369 -0.031269
							CHANNELS 3 Zrotation Yrotation Xrotation
							JOINT rwrist
							{
								OFFSET -0.269108 0.006794 -0.006027
								CHANNELS 3 Zrotation Yrotation Xrotation
								End Site
								{
									OFFSET 0.000000 0.000000 0.000000
								}
							}
						}
					}
				}
			}
		}
	}
}
MOTION
Frames: 10
Frame Time: 0.033333
1.162187 1.045197 0.991001 -75.575085 -13.026956 74.286012 24.445499 -1.390007 -24.316627 -7.965572 -6.727329 32.821192 -10.581984 1.901198 2.907599 0.000000 -0.000000 0.000000 -17.981629 -3.436076 11.125276 0.103310 4.768552 26.777334 0.261249 -7.168737 -26.501620 0.000000 -0.000000 0.000000 -0.490523 6.848412 13.261508 0.198667 -1.718778 10.624046 -2.397565 0.269574 4.248901 0.714601 9.773068 10.035715 0.014007 2.686707 15.521840 -27.839361 9.321912 0.746416 -55.734887 1.306602 2.388783 8.050609 -27.409572 6.984603 -1.509827 -2.072210 -12.234838 27.139842 -1.045662 0.570743 50.532117 6.805137 6.035660 -11.995197 28.875983 -5.863738 2.060359 -0.299070 -0.251467 
1.155296 1.029628 0.987725 -75.879277 -13.102923 74.424368 24.651728 -1.283385 -22.728025 -7.641148 -8.058435 28.576595 -12.316637 1.526252 5.131045 0.000000 -0.000000 0.000000 -18.970330 -3.316566 11.075804 -0.158552 4.954254 27.833581 0.543170 -6.886102 -27.444927 0.000000 -0.000000 0.000000 -0.023827 6.315520 13.085738 -0.002374 -1.659233 10.967960 -2.627567 0.227904 3.834457 0.544295 10.024038 10.615182 -0.164251 2.738702 15.366079 -27.998857 9.364993 0.697260 -55.120537 1.661705 2.276700 7.927777 -27.727083 6.923395 -1.783076 -2.564373 -11.975464 27.176811 -0.792216 0.746322 49.894879 6.938343 5.818810 -11.418090 29.293287 -5.837680 1.275371 -0.121151 0.463540 
1.147768 1.012690 0.983260 -75.910799 -13.065617 74.635933 24.610109 -1.042380 -21.741483 -7.539625 -8.932902 25.420078 -13.766422 0.500030 6.271161 0.000000 -0.000000 0.000000 -20.135037 -3.358297 11.441901 -0.401227 4.906223 28.207211 1.021836 -6.457262 -28.224046 0.000000 -0.000000 0.000000 0.367465 5.943892 12.629443 -0.144467 -1.836016 11.463894 -2.834569 0.305295 3.750796 0.514041 10.480629 11.041525 -0.361486 2.900454 15.435325 -27.819375 9.242260 0.535245 -54.820520 1.838610 2.451494 7.557404 -27.999008 7.000732 -1.045355 -2.681402 -11.151307 27.132016 -0.663785 0.746552 49.404459 7.127668 5.635808 -10.835174 29.936155 -6.059356 1.112681 0.175438 0.832050 
1.141529 0.994148 0.978878 -75.809072 -12.917342 74.659798 24.245668 -1.030595 -21.016548 -7.572019 -9.359760 23.429100 -14.818115 -0.255471 6.597277 0.000000 -0.000000 0.000000 -21.286171 -3.160007 11.966264 -0.416162 4.970221 28.513957 1.538251 -6.317325 -28.905857 0.000000 -0.000000 0.000000 0.833299 5.687627 12.454986 -0.169583 -2.139999 13.193705 -3.055085 0.402810 3.154719 0.587401 10.173882 9.849749 -0.869712 1.940303 15.437266 -27.928228 8.901028 -0.446692 -54.425133 1.695769 2.860473 7.641609 -27.808276 6.641764 -1.114279 -2.718211 -11.041795 27.150988 -0.198876 -0.090677 48.859654 7.358893 5.985542 -10.956205 30.275526 -6.750278 0.641167 0.455307 1.480488 
1.134054 0.974626 0.973284 -75.424796 -12.532392 75.425497 23.805629 -0.608009 -21.820516 -8.346748 -9.967208 23.313052 -16.124088 -1.636326 7.171879 0.000000 -0.000000 0.000000 -22.189300 -3.554744 11.915905 -0.829382 4.797930 28.750815 2.099572 -5.838284 -29.376708 0.000000 -0.000000 0.000000 1.149519 5.612893 12.738872 -0.104409 -2.270491 11.706523 -3.018079 0.204512 3.796289 0.531537 10.122024 10.050193 -0.741283 2.060420 15.432546 -27.931717 8.818514 -0.305318 -53.831967 1.451185 2.773940 7.373617 -27.852397 6.330432 -1.143809 -2.956248 -11.410617 27.192318 -0.272590 -0.012078 48.420061 7.649280 5.907983 -10.865110 30.652338 -6.971294 0.105117 0.484499 1.626617 
1.127775 0.953794 0.967539 -74.961927 -11.952927 76.253470 23.330455 -1.085831 -23.230464 -9.397770 -10.229903 24.819270 -17.596832 -2.864865 7.574782 0.000000 -0.000000 0.000000 -22.643207 -3.391629 12.035014 -1.332658 4.286278 28.584697 2.562413 -5.955031 -29.550945 0.000000 -0.000000 0.000000 1.418763 5.855687 13.159568 0.140032 -2.665364 11.283839 -2.888658 0.155557 3.650697 0.707120 8.935800 10.133154 -0.602484 1.054063 15.167403 -27.870082 8.031434 0.048928 -53.469844 1.256292 2.954508 7.580658 -28.075024 5.350124 -1.343737 -3.119685 -11.383195 27.220662 0.091067 -0.125029 47.901172 7.560688 5.680758 -11.027018 31.459837 -7.401452 -0.159525 0.356784 2.049315 
1.120483 0.932053 0.960913 -74.628313 -11.108710 77.267990 22.743120 -1.195761 -24.920959 -10.599066 -10.802346 27.545853 -18.745153 -4.068648 8.195971 0.000000 -0.000000 0.000000 -22.953032 -3.523054 12.153438 -1.765499 4.233233 28.077960 3.077928 -6.072936 -29.541789 0.000000 -0.000000 0.000000 1.587581 5.961846 13.374295 0.363461 -2.808346 11.077184 -2.855205 0.189559 3.928312 0.954840 7.992053 9.324678 -0.477278 0.252177 14.700042 -27.750596 7.872572 -0.372409 -52.579155 0.825495 3.337744 7.100128 -29.233794 5.434818 -1.296833 -3.337483 -11.391646 27.187061 0.536363 -0.447037 47.855128 8.067640 6.064839 -11.271658 31.269559 -8.298505 0.058008 0.381946 1.394592 
1.112934 0.908686 0.953430 -74.930152 -10.157340 78.837831 22.197035 -0.766881 -27.217718 -10.891353 -8.958974 32.149898 -15.693168 -3.716161 -1.132083 0.000000 -0.000000 0.000000 -23.318786 -3.617187 11.615704 -1.980130 4.608042 27.762613 4.444702 -5.976604 -29.857617 0.000000 -0.000000 0.000000 1.669260 6.195635 13.456608 0.443610 -2.690546 10.352416 -2.791709 0.453104 4.258844 0.950376 7.669982 8.706478 -0.424653 0.598727 14.565026 -27.348771 7.386553 -0.349838 -51.711885 0.444162 2.767366 6.332944 -29.940471 5.732455 -1.959976 -3.338096 -11.551061 27.193799 0.973897 -0.573402 48.062449 8.410966 6.322227 -12.054095 31.415186 -9.237839 1.009372 -0.332206 1.732764 
1.107151 0.885676 0.946240 -75.104981 -9.180920 80.067665 22.238513 -1.028392 -28.819959 -10.826038 -6.982989 35.261178 -12.541798 -3.335364 -8.923901 0.000000 -0.000000 0.000000 -23.463513 -3.447077 11.474751 -2.331024 5.106381 26.988584 5.664684 -6.553517 -29.362563 0.000000 -0.000000 0.000000 1.372887 6.974886 15.037243 0.707696 -2.879630 9.381291 -2.476843 0.304216 4.439158 1.241068 6.924989 6.745546 -0.241963 -0.743099 14.539367 -26.482242 6.759043 -0.271200 -51.092736 -0.418433 2.888549 5.596850 -30.699946 6.479986 -2.155165 -3.545325 -13.010835 26.979568 1.473429 -1.230787 48.698485 9.106229 7.151809 -13.291786 31.778350 -10.329518 0.522417 -0.235453 1.411246 
1.100351 0.862224 0.939688 -74.967625 -8.033143 81.343017 22.388061 -0.250135 -32.048423 -12.012389 -6.673717 40.127727 -11.293949 -4.160577 -13.250930 0.000000 -0.000000 0.000000 -23.801234 -3.802941 11.541592 -2.624057 5.449370 26.074834 7.178592 -6.389033 -27.749788 0.000000 -0.000000 0.000000 0.710717 7.594436 16.785906 0.921308 -3.384947 7.983544 -1.986734 0.384498 4.557644 1.281854 7.340167 5.387094 0.197968 -0.669425 14.353247 -25.575719 5.647919 0.230355 -49.943539 -1.122264 2.563989 4.727830 -31.403473 7.545749 -1.028631 -4.012336 -13.514180 26.865995 2.176251 -1.276566 49.378204 9.468282 7.334607 -14.436576 32.052519 -11.325733 0.822334 0.324089 0.395375 
